<?xml version="1.0" standalone="no"?>
<!DOCTYPE svg PUBLIC "-//W3C//DTD SVG 1.1//EN" "http://www.w3.org/Graphics/SVG/1.1/DTD/svg11.dtd">
<svg xmlns="http://www.w3.org/2000/svg" id="Layer_2" data-name="Layer 2" viewBox="0 0 128.27 716" width="128.27000427246094" height="716">
  <g id="Objects">
    <path d="M65.38,1.36c-1.24-1.17-3-1.63-4.66-1.21s-2.99,1.66-3.52,3.28l-26.54,80.06c-.31.94-.33,1.9-.1,2.8.4,1.6,1.6,2.97,3.28,3.53,2.62.87,5.45-.56,6.32-3.18l21.11-63.69c27.03,111.44,35.78,226.85,25.98,343.21-10.07,119.6-39.28,234.94-86.82,342.83-1.11,2.53.03,5.48,2.56,6.59.66.29,1.34.43,2.01.43,1.92,0,3.75-1.11,4.58-2.98,47.99-108.9,77.47-225.32,87.63-346.02,9.89-117.52,1.04-234.09-26.29-346.65l48.92,46.19c2.01,1.9,5.18,1.82,7.07-.19,1.89-2.01,1.78-5.19-.2-7.08L65.38,1.36Z"/>
  </g>
</svg>